<mxfile host="app.diagrams.net" agent="Mozilla/5.0 (Windows NT 10.0; Win64; x64) AppleWebKit/537.36 (KHTML, like Gecko) Chrome/134.0.0.0 Safari/537.36" version="26.1.0">
  <diagram id="C5RBs43oDa-KdzZeNtuy" name="Page-1">
    <mxGraphModel dx="1050" dy="530" grid="1" gridSize="10" guides="1" tooltips="1" connect="1" arrows="1" fold="1" page="1" pageScale="1" pageWidth="827" pageHeight="1169" math="0" shadow="0">
      <root>
        <mxCell id="WIyWlLk6GJQsqaUBKTNV-0" />
        <mxCell id="WIyWlLk6GJQsqaUBKTNV-1" parent="WIyWlLk6GJQsqaUBKTNV-0" />
        <mxCell id="Zge93vPWhQPrUG6nBFem-1" value="原逻辑" style="text;html=1;align=center;verticalAlign=middle;resizable=0;points=[];autosize=1;strokeColor=none;fillColor=none;" vertex="1" parent="WIyWlLk6GJQsqaUBKTNV-1">
          <mxGeometry x="80" y="30" width="60" height="30" as="geometry" />
        </mxCell>
        <mxCell id="Zge93vPWhQPrUG6nBFem-5" value="" style="edgeStyle=orthogonalEdgeStyle;rounded=0;orthogonalLoop=1;jettySize=auto;html=1;" edge="1" parent="WIyWlLk6GJQsqaUBKTNV-1" source="Zge93vPWhQPrUG6nBFem-2" target="Zge93vPWhQPrUG6nBFem-4">
          <mxGeometry relative="1" as="geometry" />
        </mxCell>
        <mxCell id="Zge93vPWhQPrUG6nBFem-32" value="" style="edgeStyle=orthogonalEdgeStyle;rounded=0;orthogonalLoop=1;jettySize=auto;html=1;" edge="1" parent="WIyWlLk6GJQsqaUBKTNV-1" source="Zge93vPWhQPrUG6nBFem-2" target="Zge93vPWhQPrUG6nBFem-31">
          <mxGeometry relative="1" as="geometry">
            <Array as="points">
              <mxPoint x="80" y="130" />
            </Array>
          </mxGeometry>
        </mxCell>
        <mxCell id="Zge93vPWhQPrUG6nBFem-2" value="改价（开始）" style="strokeWidth=2;html=1;shape=mxgraph.flowchart.start_1;whiteSpace=wrap;" vertex="1" parent="WIyWlLk6GJQsqaUBKTNV-1">
          <mxGeometry x="30" y="230" width="100" height="60" as="geometry" />
        </mxCell>
        <mxCell id="Zge93vPWhQPrUG6nBFem-7" value="" style="edgeStyle=orthogonalEdgeStyle;rounded=0;orthogonalLoop=1;jettySize=auto;html=1;" edge="1" parent="WIyWlLk6GJQsqaUBKTNV-1" source="Zge93vPWhQPrUG6nBFem-4" target="Zge93vPWhQPrUG6nBFem-6">
          <mxGeometry relative="1" as="geometry" />
        </mxCell>
        <mxCell id="Zge93vPWhQPrUG6nBFem-4" value="根据uuid和订单状态(XXX)查询订单id【查询es】" style="whiteSpace=wrap;html=1;strokeWidth=2;" vertex="1" parent="WIyWlLk6GJQsqaUBKTNV-1">
          <mxGeometry x="200" y="230" width="120" height="60" as="geometry" />
        </mxCell>
        <mxCell id="Zge93vPWhQPrUG6nBFem-9" value="" style="edgeStyle=orthogonalEdgeStyle;rounded=0;orthogonalLoop=1;jettySize=auto;html=1;" edge="1" parent="WIyWlLk6GJQsqaUBKTNV-1" source="Zge93vPWhQPrUG6nBFem-6" target="Zge93vPWhQPrUG6nBFem-8">
          <mxGeometry relative="1" as="geometry" />
        </mxCell>
        <mxCell id="Zge93vPWhQPrUG6nBFem-10" value="yes" style="edgeLabel;html=1;align=center;verticalAlign=middle;resizable=0;points=[];" vertex="1" connectable="0" parent="Zge93vPWhQPrUG6nBFem-9">
          <mxGeometry x="-0.2067" y="1" relative="1" as="geometry">
            <mxPoint as="offset" />
          </mxGeometry>
        </mxCell>
        <mxCell id="Zge93vPWhQPrUG6nBFem-12" value="" style="edgeStyle=orthogonalEdgeStyle;rounded=0;orthogonalLoop=1;jettySize=auto;html=1;" edge="1" parent="WIyWlLk6GJQsqaUBKTNV-1" source="Zge93vPWhQPrUG6nBFem-6" target="Zge93vPWhQPrUG6nBFem-11">
          <mxGeometry relative="1" as="geometry">
            <Array as="points">
              <mxPoint x="460" y="340" />
              <mxPoint x="360" y="340" />
            </Array>
          </mxGeometry>
        </mxCell>
        <mxCell id="Zge93vPWhQPrUG6nBFem-13" value="no" style="edgeLabel;html=1;align=center;verticalAlign=middle;resizable=0;points=[];" vertex="1" connectable="0" parent="Zge93vPWhQPrUG6nBFem-12">
          <mxGeometry x="-0.1378" y="-2" relative="1" as="geometry">
            <mxPoint as="offset" />
          </mxGeometry>
        </mxCell>
        <mxCell id="Zge93vPWhQPrUG6nBFem-6" value="判断订单id是否为空" style="rhombus;whiteSpace=wrap;html=1;strokeWidth=2;" vertex="1" parent="WIyWlLk6GJQsqaUBKTNV-1">
          <mxGeometry x="420" y="220" width="80" height="80" as="geometry" />
        </mxCell>
        <mxCell id="Zge93vPWhQPrUG6nBFem-8" value="结束" style="rounded=1;whiteSpace=wrap;html=1;strokeWidth=2;" vertex="1" parent="WIyWlLk6GJQsqaUBKTNV-1">
          <mxGeometry x="630" y="230" width="120" height="60" as="geometry" />
        </mxCell>
        <mxCell id="Zge93vPWhQPrUG6nBFem-15" value="" style="edgeStyle=orthogonalEdgeStyle;rounded=0;orthogonalLoop=1;jettySize=auto;html=1;" edge="1" parent="WIyWlLk6GJQsqaUBKTNV-1" source="Zge93vPWhQPrUG6nBFem-11" target="Zge93vPWhQPrUG6nBFem-14">
          <mxGeometry relative="1" as="geometry" />
        </mxCell>
        <mxCell id="Zge93vPWhQPrUG6nBFem-17" value="" style="edgeStyle=orthogonalEdgeStyle;rounded=0;orthogonalLoop=1;jettySize=auto;html=1;" edge="1" parent="WIyWlLk6GJQsqaUBKTNV-1" source="Zge93vPWhQPrUG6nBFem-11" target="Zge93vPWhQPrUG6nBFem-16">
          <mxGeometry relative="1" as="geometry" />
        </mxCell>
        <mxCell id="Zge93vPWhQPrUG6nBFem-11" value="判断改价商品类型" style="whiteSpace=wrap;html=1;strokeWidth=2;" vertex="1" parent="WIyWlLk6GJQsqaUBKTNV-1">
          <mxGeometry x="300" y="420" width="120" height="60" as="geometry" />
        </mxCell>
        <mxCell id="Zge93vPWhQPrUG6nBFem-20" value="" style="edgeStyle=orthogonalEdgeStyle;rounded=0;orthogonalLoop=1;jettySize=auto;html=1;" edge="1" parent="WIyWlLk6GJQsqaUBKTNV-1" source="Zge93vPWhQPrUG6nBFem-14" target="Zge93vPWhQPrUG6nBFem-19">
          <mxGeometry relative="1" as="geometry">
            <Array as="points">
              <mxPoint x="160" y="585" />
            </Array>
          </mxGeometry>
        </mxCell>
        <mxCell id="Zge93vPWhQPrUG6nBFem-14" value="供应商匹配" style="whiteSpace=wrap;html=1;strokeWidth=2;" vertex="1" parent="WIyWlLk6GJQsqaUBKTNV-1">
          <mxGeometry x="100" y="420" width="120" height="60" as="geometry" />
        </mxCell>
        <mxCell id="Zge93vPWhQPrUG6nBFem-70" value="" style="edgeStyle=orthogonalEdgeStyle;rounded=0;orthogonalLoop=1;jettySize=auto;html=1;" edge="1" parent="WIyWlLk6GJQsqaUBKTNV-1" source="Zge93vPWhQPrUG6nBFem-16" target="Zge93vPWhQPrUG6nBFem-69">
          <mxGeometry relative="1" as="geometry" />
        </mxCell>
        <mxCell id="Zge93vPWhQPrUG6nBFem-16" value="精准匹配" style="whiteSpace=wrap;html=1;strokeWidth=2;" vertex="1" parent="WIyWlLk6GJQsqaUBKTNV-1">
          <mxGeometry x="500" y="420" width="120" height="60" as="geometry" />
        </mxCell>
        <mxCell id="Zge93vPWhQPrUG6nBFem-23" value="" style="edgeStyle=orthogonalEdgeStyle;rounded=0;orthogonalLoop=1;jettySize=auto;html=1;" edge="1" parent="WIyWlLk6GJQsqaUBKTNV-1" source="Zge93vPWhQPrUG6nBFem-19" target="Zge93vPWhQPrUG6nBFem-22">
          <mxGeometry relative="1" as="geometry" />
        </mxCell>
        <mxCell id="Zge93vPWhQPrUG6nBFem-19" value="查询订单商品信息" style="whiteSpace=wrap;html=1;strokeWidth=2;" vertex="1" parent="WIyWlLk6GJQsqaUBKTNV-1">
          <mxGeometry x="100" y="560" width="120" height="60" as="geometry" />
        </mxCell>
        <mxCell id="Zge93vPWhQPrUG6nBFem-24" style="edgeStyle=orthogonalEdgeStyle;rounded=0;orthogonalLoop=1;jettySize=auto;html=1;entryX=0.5;entryY=1;entryDx=0;entryDy=0;" edge="1" parent="WIyWlLk6GJQsqaUBKTNV-1" source="Zge93vPWhQPrUG6nBFem-22" target="Zge93vPWhQPrUG6nBFem-8">
          <mxGeometry relative="1" as="geometry">
            <Array as="points">
              <mxPoint x="690" y="725" />
            </Array>
          </mxGeometry>
        </mxCell>
        <mxCell id="Zge93vPWhQPrUG6nBFem-25" value="no" style="edgeLabel;html=1;align=center;verticalAlign=middle;resizable=0;points=[];" vertex="1" connectable="0" parent="Zge93vPWhQPrUG6nBFem-24">
          <mxGeometry x="-0.7705" relative="1" as="geometry">
            <mxPoint as="offset" />
          </mxGeometry>
        </mxCell>
        <mxCell id="Zge93vPWhQPrUG6nBFem-27" value="" style="edgeStyle=orthogonalEdgeStyle;rounded=0;orthogonalLoop=1;jettySize=auto;html=1;" edge="1" parent="WIyWlLk6GJQsqaUBKTNV-1" source="Zge93vPWhQPrUG6nBFem-22" target="Zge93vPWhQPrUG6nBFem-26">
          <mxGeometry relative="1" as="geometry" />
        </mxCell>
        <mxCell id="Zge93vPWhQPrUG6nBFem-28" value="yes" style="edgeLabel;html=1;align=center;verticalAlign=middle;resizable=0;points=[];" vertex="1" connectable="0" parent="Zge93vPWhQPrUG6nBFem-27">
          <mxGeometry x="-0.2711" y="-1" relative="1" as="geometry">
            <mxPoint as="offset" />
          </mxGeometry>
        </mxCell>
        <mxCell id="Zge93vPWhQPrUG6nBFem-22" value="判断订单商品是否存在" style="rhombus;whiteSpace=wrap;html=1;strokeWidth=2;" vertex="1" parent="WIyWlLk6GJQsqaUBKTNV-1">
          <mxGeometry x="320" y="685" width="80" height="80" as="geometry" />
        </mxCell>
        <mxCell id="Zge93vPWhQPrUG6nBFem-29" style="edgeStyle=orthogonalEdgeStyle;rounded=0;orthogonalLoop=1;jettySize=auto;html=1;" edge="1" parent="WIyWlLk6GJQsqaUBKTNV-1" source="Zge93vPWhQPrUG6nBFem-26">
          <mxGeometry relative="1" as="geometry">
            <mxPoint x="690" y="720" as="targetPoint" />
            <Array as="points">
              <mxPoint x="690" y="885" />
            </Array>
          </mxGeometry>
        </mxCell>
        <mxCell id="Zge93vPWhQPrUG6nBFem-26" value="修改商品价格、修改订单总采购价、记录日志" style="whiteSpace=wrap;html=1;strokeWidth=2;" vertex="1" parent="WIyWlLk6GJQsqaUBKTNV-1">
          <mxGeometry x="300" y="855" width="120" height="60" as="geometry" />
        </mxCell>
        <mxCell id="Zge93vPWhQPrUG6nBFem-33" style="edgeStyle=orthogonalEdgeStyle;rounded=0;orthogonalLoop=1;jettySize=auto;html=1;entryX=0.5;entryY=0;entryDx=0;entryDy=0;" edge="1" parent="WIyWlLk6GJQsqaUBKTNV-1" source="Zge93vPWhQPrUG6nBFem-31" target="Zge93vPWhQPrUG6nBFem-4">
          <mxGeometry relative="1" as="geometry" />
        </mxCell>
        <mxCell id="Zge93vPWhQPrUG6nBFem-31" value="发送mq（查询待发货订单）" style="whiteSpace=wrap;html=1;strokeWidth=2;" vertex="1" parent="WIyWlLk6GJQsqaUBKTNV-1">
          <mxGeometry x="200" y="100" width="120" height="60" as="geometry" />
        </mxCell>
        <mxCell id="Zge93vPWhQPrUG6nBFem-68" value="&lt;span style=&quot;color: rgb(255, 37, 13); text-wrap-mode: nowrap;&quot;&gt;原改价存在问题：当改价的商品过多时，查询es的次数过多，导致es压力过大。后续数据量大的时候会出问题。&lt;/span&gt;&lt;div&gt;&lt;span style=&quot;color: rgb(255, 37, 13); text-wrap-mode: nowrap;&quot;&gt;&lt;span style=&quot;color: rgb(0, 0, 0);&quot;&gt;es查询目前本身存在问题：返回所有字段，导致io过大，返回数据有得分导致浪费性能。&lt;/span&gt;&lt;/span&gt;&lt;/div&gt;&lt;div&gt;&lt;span style=&quot;color: rgb(255, 37, 13); text-wrap-mode: nowrap;&quot;&gt;&lt;span style=&quot;color: rgb(0, 0, 0);&quot;&gt;改造：方案一&lt;div&gt;分页去查询es，后续将查询的结果丢给异步线程处理。&lt;/div&gt;&lt;div&gt;改造：方案二&lt;div&gt;直接通过订单商品表连表查询。&lt;/div&gt;&lt;/div&gt;&lt;/span&gt;&lt;/span&gt;&lt;/div&gt;" style="shape=note;whiteSpace=wrap;html=1;backgroundOutline=1;fontColor=#000000;darkOpacity=0.05;fillColor=#FFF9B2;strokeColor=none;fillStyle=solid;direction=west;gradientDirection=north;gradientColor=#FFF2A1;shadow=1;size=20;pointerEvents=1;align=left;" vertex="1" parent="WIyWlLk6GJQsqaUBKTNV-1">
          <mxGeometry x="50" y="930" width="650" height="140" as="geometry" />
        </mxCell>
        <mxCell id="Zge93vPWhQPrUG6nBFem-71" style="edgeStyle=orthogonalEdgeStyle;rounded=0;orthogonalLoop=1;jettySize=auto;html=1;entryX=0.5;entryY=0;entryDx=0;entryDy=0;" edge="1" parent="WIyWlLk6GJQsqaUBKTNV-1" source="Zge93vPWhQPrUG6nBFem-69" target="Zge93vPWhQPrUG6nBFem-22">
          <mxGeometry relative="1" as="geometry" />
        </mxCell>
        <mxCell id="Zge93vPWhQPrUG6nBFem-69" value="查询订单商品信息" style="whiteSpace=wrap;html=1;strokeWidth=2;" vertex="1" parent="WIyWlLk6GJQsqaUBKTNV-1">
          <mxGeometry x="500" y="560" width="120" height="60" as="geometry" />
        </mxCell>
      </root>
    </mxGraphModel>
  </diagram>
</mxfile>
